<mxfile host="65bd71144e">
    <diagram id="Wvkl28dLaL5YabkS6uyh" name="ページ1">
        <mxGraphModel dx="554" dy="312" grid="1" gridSize="10" guides="1" tooltips="1" connect="1" arrows="1" fold="1" page="1" pageScale="1" pageWidth="827" pageHeight="1169" background="#0A0A0A" math="0" shadow="0">
            <root>
                <mxCell id="0"/>
                <mxCell id="1" parent="0"/>
                <mxCell id="30" value="World" style="swimlane;fontStyle=1;align=center;verticalAlign=top;childLayout=stackLayout;horizontal=1;startSize=26;horizontalStack=0;resizeParent=1;resizeParentMax=0;resizeLast=0;collapsible=1;marginBottom=0;strokeWidth=1;rounded=0;labelBackgroundColor=none;fillColor=#f5f5f5;fontColor=#333333;strokeColor=#C7C7C7;" vertex="1" parent="1">
                    <mxGeometry x="54" y="290" width="360" height="112" as="geometry"/>
                </mxCell>
                <mxCell id="31" value="- chunkMap_ : map&lt;Archetype,Chunk&gt;" style="text;align=left;verticalAlign=top;spacingLeft=4;spacingRight=4;overflow=hidden;rotatable=0;points=[[0,0.5],[1,0.5]];portConstraint=eastwest;strokeWidth=0;rounded=0;labelBackgroundColor=none;fillColor=#f5f5f5;fontColor=#333333;strokeColor=#C7C7C7;" vertex="1" parent="30">
                    <mxGeometry y="26" width="360" height="26" as="geometry"/>
                </mxCell>
                <mxCell id="32" value="" style="line;strokeWidth=1;align=left;verticalAlign=middle;spacingTop=-1;spacingLeft=3;spacingRight=3;rotatable=0;labelPosition=right;points=[];portConstraint=eastwest;rounded=0;labelBackgroundColor=none;fillColor=#f5f5f5;fontColor=#333333;strokeColor=#C7C7C7;" vertex="1" parent="30">
                    <mxGeometry y="52" width="360" height="8" as="geometry"/>
                </mxCell>
                <mxCell id="39" value="+ CreateEntity(Component情報 : Archetype, 生成数: size_t)" style="text;align=left;verticalAlign=top;spacingLeft=4;spacingRight=4;overflow=hidden;rotatable=0;points=[[0,0.5],[1,0.5]];portConstraint=eastwest;strokeWidth=0;rounded=0;labelBackgroundColor=none;fillColor=#f5f5f5;fontColor=#333333;strokeColor=#C7C7C7;" vertex="1" parent="30">
                    <mxGeometry y="60" width="360" height="26" as="geometry"/>
                </mxCell>
                <mxCell id="33" value="+ GetChunk(Component情報 : Archetype) : List&lt;Chunk&gt;" style="text;align=left;verticalAlign=top;spacingLeft=4;spacingRight=4;overflow=hidden;rotatable=0;points=[[0,0.5],[1,0.5]];portConstraint=eastwest;strokeWidth=0;rounded=0;labelBackgroundColor=none;fillColor=#f5f5f5;fontColor=#333333;strokeColor=#C7C7C7;" vertex="1" parent="30">
                    <mxGeometry y="86" width="360" height="26" as="geometry"/>
                </mxCell>
                <mxCell id="40" value="Archetype" style="swimlane;fontStyle=1;align=center;verticalAlign=top;childLayout=stackLayout;horizontal=1;startSize=26;horizontalStack=0;resizeParent=1;resizeParentMax=0;resizeLast=0;collapsible=1;marginBottom=0;strokeWidth=1;rounded=0;labelBackgroundColor=none;fillColor=#f5f5f5;fontColor=#333333;strokeColor=#C7C7C7;" vertex="1" parent="1">
                    <mxGeometry x="525" y="250" width="200" height="60" as="geometry"/>
                </mxCell>
                <mxCell id="41" value="+ componentFlag_ : std::bitset&lt;N&gt;" style="text;align=left;verticalAlign=top;spacingLeft=4;spacingRight=4;overflow=hidden;rotatable=0;points=[[0,0.5],[1,0.5]];portConstraint=eastwest;strokeWidth=1;rounded=0;labelBackgroundColor=none;fillColor=#f5f5f5;fontColor=#333333;strokeColor=#C7C7C7;" vertex="1" parent="40">
                    <mxGeometry y="26" width="200" height="26" as="geometry"/>
                </mxCell>
                <mxCell id="42" value="" style="line;strokeWidth=1;align=left;verticalAlign=middle;spacingTop=-1;spacingLeft=3;spacingRight=3;rotatable=0;labelPosition=right;points=[];portConstraint=eastwest;rounded=0;labelBackgroundColor=none;fillColor=default;fontColor=#333333;strokeColor=#C7C7C7;" vertex="1" parent="40">
                    <mxGeometry y="52" width="200" height="8" as="geometry"/>
                </mxCell>
                <mxCell id="49" value="Chunk" style="swimlane;fontStyle=1;align=center;verticalAlign=top;childLayout=stackLayout;horizontal=1;startSize=26;horizontalStack=0;resizeParent=1;resizeParentMax=0;resizeLast=0;collapsible=1;marginBottom=0;strokeWidth=1;rounded=0;labelBackgroundColor=none;fillColor=#f5f5f5;fontColor=#333333;strokeColor=#C7C7C7;" vertex="1" parent="1">
                    <mxGeometry x="520" y="360" width="210" height="112" as="geometry">
                        <mxRectangle x="520" y="240" width="80" height="30" as="alternateBounds"/>
                    </mxGeometry>
                </mxCell>
                <mxCell id="50" value="- storage_ : List&lt;EntityArrayStorage&gt;" style="text;align=left;verticalAlign=top;spacingLeft=4;spacingRight=4;overflow=hidden;rotatable=0;points=[[0,0.5],[1,0.5]];portConstraint=eastwest;strokeWidth=1;rounded=0;labelBackgroundColor=none;fillColor=#f5f5f5;fontColor=#333333;strokeColor=#C7C7C7;" vertex="1" parent="49">
                    <mxGeometry y="26" width="210" height="26" as="geometry"/>
                </mxCell>
                <mxCell id="74" value="- size_ : size_t = 0u" style="text;align=left;verticalAlign=top;spacingLeft=4;spacingRight=4;overflow=hidden;rotatable=0;points=[[0,0.5],[1,0.5]];portConstraint=eastwest;strokeWidth=1;rounded=0;labelBackgroundColor=none;fillColor=#f5f5f5;fontColor=#333333;strokeColor=#C7C7C7;" vertex="1" parent="49">
                    <mxGeometry y="52" width="210" height="26" as="geometry"/>
                </mxCell>
                <mxCell id="51" value="" style="line;strokeWidth=1;align=left;verticalAlign=middle;spacingTop=-1;spacingLeft=3;spacingRight=3;rotatable=0;labelPosition=right;points=[];portConstraint=eastwest;rounded=0;labelBackgroundColor=none;fillColor=#f5f5f5;fontColor=#333333;strokeColor=#C7C7C7;" vertex="1" parent="49">
                    <mxGeometry y="78" width="210" height="8" as="geometry"/>
                </mxCell>
                <mxCell id="52" value="+ GetRange&lt;T&gt;() : TRange&lt;T&gt;" style="text;align=left;verticalAlign=top;spacingLeft=4;spacingRight=4;overflow=hidden;rotatable=0;points=[[0,0.5],[1,0.5]];portConstraint=eastwest;strokeWidth=1;rounded=0;labelBackgroundColor=none;fillColor=#f5f5f5;fontColor=#333333;strokeColor=#C7C7C7;" vertex="1" parent="49">
                    <mxGeometry y="86" width="210" height="26" as="geometry"/>
                </mxCell>
                <mxCell id="61" value="" style="endArrow=diamondThin;endFill=1;endSize=24;html=1;entryX=1;entryY=0.5;entryDx=0;entryDy=0;exitX=0;exitY=0.5;exitDx=0;exitDy=0;rounded=0;fontColor=#F0F0F0;labelBackgroundColor=none;fillColor=#f5f5f5;strokeColor=#C7C7C7;" edge="1" parent="1" source="74" target="31">
                    <mxGeometry width="160" relative="1" as="geometry">
                        <mxPoint x="520" y="410" as="sourcePoint"/>
                        <mxPoint x="680" y="410" as="targetPoint"/>
                    </mxGeometry>
                </mxCell>
                <mxCell id="63" value="" style="endArrow=diamondThin;endFill=1;endSize=24;html=1;exitX=0;exitY=0.192;exitDx=0;exitDy=0;exitPerimeter=0;entryX=1;entryY=0.5;entryDx=0;entryDy=0;rounded=0;fontColor=#F0F0F0;labelBackgroundColor=none;fillColor=#f5f5f5;strokeColor=#C7C7C7;" edge="1" parent="1" source="41" target="31">
                    <mxGeometry width="160" relative="1" as="geometry">
                        <mxPoint x="520" y="410" as="sourcePoint"/>
                        <mxPoint x="680" y="410" as="targetPoint"/>
                    </mxGeometry>
                </mxCell>
                <mxCell id="66" value="Create" style="html=1;verticalAlign=bottom;labelBackgroundColor=none;endArrow=open;endFill=0;dashed=1;exitX=0.486;exitY=1.038;exitDx=0;exitDy=0;exitPerimeter=0;entryX=0.5;entryY=0;entryDx=0;entryDy=0;rounded=0;fontColor=#F0F0F0;fillColor=#f5f5f5;strokeColor=#C7C7C7;" edge="1" parent="1" source="52" target="68">
                    <mxGeometry x="0.4453" y="-22" width="160" relative="1" as="geometry">
                        <mxPoint x="400" y="430" as="sourcePoint"/>
                        <mxPoint x="622" y="530" as="targetPoint"/>
                        <Array as="points"/>
                        <mxPoint as="offset"/>
                    </mxGeometry>
                </mxCell>
                <mxCell id="68" value="TRange&lt;T&gt;" style="swimlane;fontStyle=1;align=center;verticalAlign=top;childLayout=stackLayout;horizontal=1;startSize=26;horizontalStack=0;resizeParent=1;resizeParentMax=0;resizeLast=0;collapsible=1;marginBottom=0;strokeWidth=1;rounded=0;labelBackgroundColor=none;fillColor=#f5f5f5;fontColor=#333333;strokeColor=#C7C7C7;" vertex="1" parent="1">
                    <mxGeometry x="540" y="510" width="165" height="112" as="geometry"/>
                </mxCell>
                <mxCell id="70" value="" style="line;strokeWidth=1;align=left;verticalAlign=middle;spacingTop=-1;spacingLeft=3;spacingRight=3;rotatable=0;labelPosition=right;points=[];portConstraint=eastwest;rounded=0;labelBackgroundColor=none;fillColor=#f5f5f5;fontColor=#333333;strokeColor=#C7C7C7;" vertex="1" parent="68">
                    <mxGeometry y="26" width="165" height="8" as="geometry"/>
                </mxCell>
                <mxCell id="71" value="+ begin() : CompIterator&lt;T&gt;" style="text;align=left;verticalAlign=top;spacingLeft=4;spacingRight=4;overflow=hidden;rotatable=0;points=[[0,0.5],[1,0.5]];portConstraint=eastwest;strokeWidth=1;rounded=0;labelBackgroundColor=none;fillColor=#f5f5f5;fontColor=#333333;strokeColor=#C7C7C7;" vertex="1" parent="68">
                    <mxGeometry y="34" width="165" height="26" as="geometry"/>
                </mxCell>
                <mxCell id="72" value="+ end() : CompIterator&lt;T&gt;" style="text;align=left;verticalAlign=top;spacingLeft=4;spacingRight=4;overflow=hidden;rotatable=0;points=[[0,0.5],[1,0.5]];portConstraint=eastwest;strokeWidth=1;rounded=0;labelBackgroundColor=none;fillColor=#f5f5f5;fontColor=#333333;strokeColor=#C7C7C7;" vertex="1" parent="68">
                    <mxGeometry y="60" width="165" height="26" as="geometry"/>
                </mxCell>
                <mxCell id="73" value="+ size() : size_t" style="text;align=left;verticalAlign=top;spacingLeft=4;spacingRight=4;overflow=hidden;rotatable=0;points=[[0,0.5],[1,0.5]];portConstraint=eastwest;strokeWidth=1;rounded=0;labelBackgroundColor=none;fillColor=#f5f5f5;fontColor=#333333;strokeColor=#C7C7C7;" vertex="1" parent="68">
                    <mxGeometry y="86" width="165" height="26" as="geometry"/>
                </mxCell>
                <mxCell id="75" value="List&lt;Chunk&gt;" style="swimlane;fontStyle=1;align=center;verticalAlign=top;childLayout=stackLayout;horizontal=1;startSize=26;horizontalStack=0;resizeParent=1;resizeParentMax=0;resizeLast=0;collapsible=1;marginBottom=0;strokeWidth=1;rounded=0;labelBackgroundColor=none;fillColor=#f5f5f5;fontColor=#333333;strokeColor=#C7C7C7;" vertex="1" parent="1">
                    <mxGeometry x="130" y="480" width="230" height="86" as="geometry"/>
                </mxCell>
                <mxCell id="76" value="- chunks_ : vector&lt;Chank*&gt;" style="text;align=left;verticalAlign=top;spacingLeft=4;spacingRight=4;overflow=hidden;rotatable=0;points=[[0,0.5],[1,0.5]];portConstraint=eastwest;strokeWidth=1;rounded=0;labelBackgroundColor=none;fillColor=#f5f5f5;fontColor=#333333;strokeColor=#C7C7C7;" vertex="1" parent="75">
                    <mxGeometry y="26" width="230" height="26" as="geometry"/>
                </mxCell>
                <mxCell id="77" value="" style="line;strokeWidth=1;align=left;verticalAlign=middle;spacingTop=-1;spacingLeft=3;spacingRight=3;rotatable=0;labelPosition=right;points=[];portConstraint=eastwest;rounded=0;labelBackgroundColor=none;fillColor=#f5f5f5;fontColor=#333333;strokeColor=#C7C7C7;" vertex="1" parent="75">
                    <mxGeometry y="52" width="230" height="8" as="geometry"/>
                </mxCell>
                <mxCell id="78" value="+ GetRanges&lt;T&gt;() : List&lt;TRange&lt;T&gt;&gt;" style="text;align=left;verticalAlign=top;spacingLeft=4;spacingRight=4;overflow=hidden;rotatable=0;points=[[0,0.5],[1,0.5]];portConstraint=eastwest;strokeWidth=1;rounded=0;labelBackgroundColor=none;fillColor=#f5f5f5;fontColor=#333333;strokeColor=#C7C7C7;" vertex="1" parent="75">
                    <mxGeometry y="60" width="230" height="26" as="geometry"/>
                </mxCell>
                <mxCell id="79" value="Create" style="html=1;verticalAlign=bottom;labelBackgroundColor=none;endArrow=open;endFill=0;dashed=1;exitX=0.519;exitY=1.026;exitDx=0;exitDy=0;exitPerimeter=0;entryX=0.481;entryY=-0.008;entryDx=0;entryDy=0;entryPerimeter=0;rounded=0;fontColor=#F0F0F0;fillColor=#f5f5f5;strokeColor=#C7C7C7;" edge="1" parent="1" source="33" target="75">
                    <mxGeometry x="0.1758" y="-21" width="160" relative="1" as="geometry">
                        <mxPoint x="239.64000000000016" y="421.99800000000005" as="sourcePoint"/>
                        <mxPoint x="239.5800000000002" y="479.01" as="targetPoint"/>
                        <Array as="points"/>
                        <mxPoint as="offset"/>
                    </mxGeometry>
                </mxCell>
                <mxCell id="64" value="" style="endArrow=diamondThin;endFill=1;endSize=24;html=1;exitX=0.5;exitY=0;exitDx=0;exitDy=0;rounded=0;fontColor=#F0F0F0;labelBackgroundColor=none;fillColor=#f5f5f5;strokeColor=#C7C7C7;" edge="1" parent="1" source="49" target="42">
                    <mxGeometry width="160" relative="1" as="geometry">
                        <mxPoint x="730" y="221.99199999999996" as="sourcePoint"/>
                        <mxPoint x="630" y="300" as="targetPoint"/>
                    </mxGeometry>
                </mxCell>
                <mxCell id="119" value="return" style="html=1;verticalAlign=bottom;endArrow=open;dashed=1;endSize=8;exitX=1;exitY=0.5;exitDx=0;exitDy=0;entryX=-0.005;entryY=0.122;entryDx=0;entryDy=0;entryPerimeter=0;rounded=0;fontColor=#F0F0F0;labelBackgroundColor=none;fillColor=#f5f5f5;strokeColor=#C7C7C7;" edge="1" parent="1" source="78" target="68">
                    <mxGeometry relative="1" as="geometry">
                        <mxPoint x="470" y="570" as="sourcePoint"/>
                        <mxPoint x="390" y="570" as="targetPoint"/>
                    </mxGeometry>
                </mxCell>
            </root>
        </mxGraphModel>
    </diagram>
</mxfile>